# Blender 3.1.0
# www.blender.org
mtllib puter.mtl
o Cube
v -0.700000 1.087506 0.000000
v -0.700000 -0.912494 0.000000
v -1.000000 1.087506 0.000000
v -1.000000 -0.912494 0.000000
v -1.000000 -0.912494 -1.364092
v -0.700000 1.087506 -1.364092
v -1.000000 1.087506 -1.364092
v -0.700000 -0.912494 -1.364092
v -0.700000 0.920840 -1.596138
v -0.700000 -0.745827 -1.596138
v -1.000000 0.920840 -1.596138
v -1.000000 -0.745827 -1.596138
v -1.000000 0.420840 0.000000
v -1.000000 -0.245827 0.000000
v -0.700000 -0.688828 -1.364092
v -0.700000 0.863841 -1.364092
v -0.700000 -0.688828 0.000000
v -0.700000 0.863841 0.000000
v -0.700000 0.759063 -1.596138
v -0.700000 -0.611396 -1.596138
v -0.982282 -0.653688 -1.333220
v -0.982282 0.828701 -1.333220
v -0.982282 -0.653688 0.000000
v -0.982282 0.828701 0.000000
v -1.000000 -0.912494 1.364092
v -0.700000 1.087506 1.364092
v -1.000000 1.087506 1.364092
v -0.700000 -0.912494 1.364092
v -0.700000 0.920840 1.596138
v -0.700000 -0.745827 1.596138
v -1.000000 0.920840 1.596138
v -1.000000 -0.745827 1.596138
v -0.700000 -0.688828 1.364092
v -0.700000 0.863841 1.364092
v -0.700000 0.759063 1.596138
v -0.700000 -0.611396 1.596138
v -0.982282 -0.653688 1.333220
v -0.982282 0.828701 1.333220
v -0.780010 0.867218 1.367933
v -0.780010 -0.690735 1.366615
v -0.780010 0.866163 -1.366615
v -0.780010 -0.693372 -1.366615
vn 1.0000 -0.0000 -0.0000
vn -0.0000 -1.0000 -0.0000
vn -0.0000 -0.8122 -0.5834
vn -0.0000 1.0000 -0.0000
vn -0.0000 -0.0000 -1.0000
vn -0.0000 0.8122 -0.5834
vn 0.1235 0.9923 -0.0000
vn -1.0000 -0.0000 -0.0000
vn 0.1087 -0.0000 0.9941
vn 0.1235 -0.9923 -0.0000
vn -0.0000 -0.8122 0.5834
vn -0.0000 -0.0000 1.0000
vn -0.0000 0.8122 0.5834
vn 0.1087 -0.0000 -0.9941
vt 0.000812 0.999203
vt 0.001136 0.999268
vt 0.001001 0.999229
vt 0.000892 0.999317
vt 0.001172 0.999153
vt 0.001154 0.999597
vt 0.000972 0.999453
vt 0.000910 0.999376
vt 0.000444 0.999419
vt 0.001249 0.999005
vt 0.001238 0.998845
vt 0.000639 0.999331
vt 0.000902 0.998958
vt 0.000707 0.999486
vt 0.000850 0.999401
vt 0.001352 0.998993
vt 0.000836 0.999185
vt 0.001196 0.999179
vt 0.000688 0.999292
vt 0.000755 0.999333
vt 0.001351 0.998618
vt 0.000815 0.999284
vt 0.000490 0.999616
vt 0.000821 0.999421
vt 0.001240 0.999531
vt 0.000779 0.999323
vt 0.000764 0.999217
vt 0.000946 0.999400
vt 0.001008 0.999428
vt 0.001031 0.999312
vt 0.000922 0.999195
vt 0.000821 0.999287
vt 0.000745 0.999265
vt 0.000880 0.999156
vt 0.000695 0.999463
vt 0.000931 0.999260
vt 0.000000 0.519522
vt 0.000000 0.000003
vt 1.000000 0.519524
vt 1.000000 0.000004
s 0
usemtl Material
f 6/6/1 18/16/1 16/14/1
f 2/2/2 5/5/2 8/8/2
f 9/9/1 16/14/1 19/17/1
f 10/10/3 5/5/3 12/12/3
f 1/1/4 7/7/4 3/3/4
f 10/10/5 11/11/5 9/9/5
f 7/7/6 9/9/6 11/11/6
f 10/10/1 15/13/1 8/8/1
f 19/17/1 15/13/1 20/18/1
f 15/13/1 2/2/1 8/8/1
f 17/15/7 21/19/7 23/21/7
f 5/5/8 3/3/8 11/11/8
f 22/20/1 23/21/1 21/19/1
f 16/14/9 21/19/9 15/13/9
f 18/16/10 22/20/10 16/14/10
f 18/16/1 26/24/1 34/32/1
f 25/23/2 2/2/2 28/26/2
f 34/32/1 29/27/1 35/33/1
f 25/23/11 30/28/11 32/30/11
f 27/25/4 1/1/4 3/3/4
f 29/27/12 32/30/12 30/28/12
f 29/27/13 27/25/13 31/29/13
f 30/28/1 33/31/1 36/34/1
f 33/31/1 35/33/1 36/34/1
f 2/2/1 33/31/1 28/26/1
f 17/15/7 37/35/7 33/31/7
f 31/29/8 3/3/8 25/23/8
f 23/21/1 38/36/1 37/35/1
f 37/35/14 34/32/14 33/31/14
f 38/36/10 18/16/10 34/32/10
f 40/38/1 41/39/1 39/37/1
f 6/6/1 1/1/1 18/16/1
f 2/2/2 4/4/2 5/5/2
f 9/9/1 6/6/1 16/14/1
f 10/10/3 8/8/3 5/5/3
f 1/1/4 6/6/4 7/7/4
f 9/9/12 20/18/12 10/10/12
f 10/10/5 12/12/5 11/11/5
f 7/7/6 6/6/6 9/9/6
f 10/10/1 20/18/1 15/13/1
f 19/17/1 16/14/1 15/13/1
f 15/13/1 17/15/1 2/2/1
f 17/15/7 15/13/7 21/19/7
f 11/11/8 12/12/8 5/5/8
f 5/5/8 4/4/8 3/3/8
f 3/3/8 7/7/8 11/11/8
f 22/20/1 24/22/1 23/21/1
f 16/14/9 22/20/9 21/19/9
f 18/16/10 24/22/10 22/20/10
f 18/16/1 1/1/1 26/24/1
f 25/23/2 4/4/2 2/2/2
f 34/32/1 26/24/1 29/27/1
f 25/23/11 28/26/11 30/28/11
f 27/25/4 26/24/4 1/1/4
f 30/28/4 36/34/4 29/27/4
f 29/27/12 31/29/12 32/30/12
f 29/27/13 26/24/13 27/25/13
f 30/28/1 28/26/1 33/31/1
f 33/31/1 34/32/1 35/33/1
f 2/2/1 17/15/1 33/31/1
f 17/15/7 23/21/7 37/35/7
f 25/23/8 32/30/8 31/29/8
f 31/29/8 27/25/8 3/3/8
f 3/3/8 4/4/8 25/23/8
f 23/21/1 24/22/1 38/36/1
f 37/35/14 38/36/14 34/32/14
f 38/36/10 24/22/10 18/16/10
f 40/38/1 42/40/1 41/39/1
l 13 3
l 14 13
l 4 14
